<?xml version="1.0" standalone="no"?>
<!DOCTYPE svg PUBLIC "-//W3C//DTD SVG 20010904//EN"
 "http://www.w3.org/TR/2001/REC-SVG-20010904/DTD/svg10.dtd">
<svg version="1.0" xmlns="http://www.w3.org/2000/svg"
 width="300.000000pt" height="429.000000pt" viewBox="0 0 300.000000 429.000000"
 preserveAspectRatio="xMidYMid meet">
<metadata>
Created by potrace 1.10, written by Peter Selinger 2001-2011
</metadata>
<g transform="translate(0.000000,429.000000) scale(0.100000,-0.100000)"
fill="#000000" stroke="none">
<path d="M1221 3322 c-149 -111 -231 -274 -231 -462 0 -52 2 -59 19 -57 15 1
18 6 13 27 -10 45 -4 89 17 119 18 24 19 30 6 35 -8 3 -15 10 -15 16 0 6 5 8
11 5 7 -5 9 3 6 22 -3 21 3 40 24 69 16 21 32 47 35 57 4 9 10 17 15 17 5 0
15 13 23 29 17 32 87 106 130 137 22 16 24 21 11 21 -10 0 -39 -16 -64 -35z"/>
<path d="M1679 3330 c29 -16 61 -35 69 -42 13 -11 14 -11 8 0 -12 19 -97 72
-115 72 -9 0 8 -14 38 -30z"/>
<path d="M1807 3267 c35 -39 78 -102 100 -145 21 -43 41 -79 45 -82 4 -3 9
-15 11 -25 1 -11 5 -24 8 -30 7 -12 5 -108 -5 -225 -6 -69 -5 -81 5 -65 17 27
20 52 21 190 l2 120 -42 87 c-29 63 -57 103 -99 145 -89 90 -115 106 -46 30z"/>
<path d="M1320 2871 c-8 -6 -17 -9 -20 -7 -3 1 -16 -8 -29 -20 l-23 -23 33 10
c42 12 101 3 131 -21 13 -10 32 -19 43 -22 17 -3 20 -11 18 -48 -1 -25 1 -40
5 -34 4 6 16 16 27 23 14 9 15 11 3 7 -12 -3 -15 -1 -12 9 8 21 -13 52 -41 59
-14 4 -25 11 -25 16 0 6 -7 10 -17 10 -14 0 -14 3 3 22 17 19 17 21 2 15 -10
-4 -18 -2 -18 4 0 6 -5 7 -10 4 -6 -4 -7 -11 -4 -17 4 -6 -3 -4 -17 5 -27 20
-29 20 -49 8z"/>
<path d="M1675 2849 c-8 -12 9 -19 59 -23 25 -3 50 -7 55 -11 5 -3 12 -1 16 5
3 5 -3 10 -14 10 -10 0 -21 5 -23 12 -5 13 -86 19 -93 7z"/>
<path d="M932 2798 c-12 -83 -12 -107 2 -171 9 -41 23 -83 31 -93 14 -18 14
-18 15 8 0 15 -4 30 -10 33 -21 13 -9 23 15 12 14 -7 25 -18 25 -24 0 -7 5
-13 10 -13 16 0 11 25 -10 53 -11 14 -20 30 -20 36 0 14 -13 14 -28 -1 -9 -9
-11 2 -7 53 3 35 5 73 6 84 0 17 3 16 25 -10 18 -23 24 -26 24 -12 0 37 -73
79 -78 45z"/>
<path d="M2023 2793 c9 -2 17 -7 17 -10 0 -3 -8 -12 -17 -19 -17 -13 -17 -15
0 -25 19 -11 25 -93 7 -104 -6 -4 -8 -10 -5 -15 3 -5 -1 -26 -10 -46 -8 -20
-15 -44 -15 -54 0 -10 -18 -40 -40 -66 -22 -27 -40 -52 -40 -56 0 -4 -5 -19
-12 -35 -6 -15 -13 -37 -15 -48 -5 -30 -31 -81 -48 -95 -8 -7 -12 -16 -9 -21
3 -5 1 -9 -3 -9 -5 0 -15 -16 -22 -35 -7 -19 -17 -35 -22 -35 -5 0 -9 -6 -9
-13 0 -21 -59 -85 -60 -65 0 9 5 20 10 23 14 9 13 72 -1 81 -8 5 -10 -1 -7
-20 4 -20 2 -24 -7 -16 -8 7 -21 7 -36 1 -24 -10 -22 -12 15 -15 11 0 20 -7
22 -14 1 -7 0 -8 -3 -2 -10 21 -23 9 -17 -16 5 -19 1 -29 -15 -40 -11 -8 -21
-23 -22 -32 0 -10 -3 -12 -6 -5 -3 9 -10 10 -21 4 -9 -5 -19 -9 -22 -9 -3 -1
-12 -3 -20 -6 -59 -18 -121 -26 -113 -13 2 4 -7 5 -21 1 -20 -5 -26 -2 -26 11
0 9 -4 13 -10 10 -5 -3 -10 -2 -10 4 0 6 -10 16 -22 22 -21 11 -22 11 -9 -5 8
-9 11 -19 7 -23 -3 -3 -6 -1 -6 6 0 7 -4 10 -9 6 -11 -6 -25 31 -16 44 3 5 1
12 -5 16 -5 3 -10 1 -10 -4 0 -6 -5 -11 -11 -11 -6 0 -9 7 -5 15 3 8 -1 21 -9
29 -13 12 -12 15 2 20 9 4 13 9 10 12 -3 3 -15 0 -27 -6 -16 -8 -19 -17 -14
-33 6 -18 2 -16 -18 8 -63 77 -113 167 -109 194 1 8 -3 17 -9 21 -6 4 -12 16
-13 28 0 11 -5 18 -9 16 -4 -3 -8 5 -8 18 0 13 -7 46 -14 73 l-14 50 -2 -37
c-1 -21 -3 -46 -3 -55 -1 -26 21 -111 40 -158 19 -44 95 -144 169 -220 131
-134 270 -141 417 -20 64 53 139 160 176 253 7 17 17 32 21 32 7 0 23 54 26
90 3 32 24 69 43 75 13 4 28 30 47 81 15 41 24 77 21 80 -3 3 1 22 10 41 23
56 1 154 -35 152 -16 -1 -16 -2 1 -6z"/>
<path d="M1281 2780 c-36 -9 -69 -35 -57 -47 4 -4 11 -1 16 6 5 10 26 14 64
12 31 -1 56 2 56 6 0 5 12 9 28 9 15 1 21 -1 14 -3 -6 -3 -10 -9 -6 -14 9 -15
20 -10 21 10 2 30 -59 39 -136 21z"/>
<path d="M1630 2779 c-24 -8 -23 -8 6 -6 17 1 39 -5 48 -13 11 -8 35 -13 63
-11 44 2 78 -13 67 -30 -3 -5 6 -9 19 -9 14 0 24 6 24 14 0 8 -3 14 -6 13 -3
-1 -18 7 -33 17 -49 32 -134 44 -188 25z"/>
<path d="M1205 2718 c17 -6 32 -14 35 -18 12 -17 78 -20 116 -5 26 10 29 13 9
8 -46 -11 -97 -7 -130 11 -16 9 -37 16 -45 15 -8 0 -1 -5 15 -11z"/>
<path d="M1670 2707 c14 -8 34 -18 46 -25 17 -9 21 -8 21 4 0 8 -5 13 -11 11
-6 -2 -17 2 -24 10 -7 7 -23 13 -35 13 -21 0 -21 -1 3 -13z"/>
<path d="M1499 2650 c-1 -8 -3 -19 -4 -25 -2 -5 -3 -16 -4 -22 0 -7 -11 -13
-23 -14 -16 0 -18 -2 -8 -6 8 -3 18 -11 22 -17 4 -6 9 -3 13 9 4 11 11 28 16
38 6 11 6 24 0 35 -9 14 -11 14 -12 2z"/>
<path d="M1411 2564 c-22 -28 -29 -74 -10 -74 5 0 8 -4 4 -9 -3 -6 7 -6 27 0
18 5 46 9 63 10 l30 1 -33 14 c-25 11 -38 12 -54 3 -38 -20 -46 29 -10 58 9 7
13 15 10 18 -3 4 -15 -6 -27 -21z"/>
<path d="M1615 2580 c3 -5 15 -10 25 -10 27 0 150 -144 150 -176 0 -14 -4 -22
-10 -19 -5 3 -10 -3 -10 -15 0 -13 -4 -19 -11 -14 -8 5 -10 -1 -5 -19 3 -15 2
-27 -5 -29 -6 -2 -9 -15 -7 -28 3 -22 7 -19 27 25 12 28 27 58 32 67 18 35 8
63 -47 135 -43 56 -64 75 -92 83 -46 12 -55 13 -47 0z"/>
<path d="M1043 2549 c-6 -6 -9 -18 -6 -26 5 -13 2 -13 -15 -4 -11 6 -23 11
-25 11 -11 0 -13 -38 -3 -52 14 -19 56 -30 57 -15 1 7 5 1 9 -13 8 -24 8 -24
8 5 1 17 -2 47 -6 68 -5 29 -10 35 -19 26z"/>
<path d="M1312 2494 c-28 -31 -52 -60 -52 -65 0 -4 21 15 48 44 26 28 54 57
62 64 8 7 10 13 5 13 -6 0 -34 -25 -63 -56z"/>
<path d="M1603 2508 c-31 -15 -29 -26 5 -21 50 8 58 13 42 23 -18 12 -19 12
-47 -2z"/>
<path d="M1540 2480 c0 -9 -12 -11 -43 -6 -34 5 -44 4 -44 -8 0 -11 14 -14 58
-12 32 1 55 -2 53 -6 -3 -4 0 -8 5 -8 17 0 13 15 -9 35 -13 12 -20 14 -20 5z"/>
<path d="M1590 2450 c0 -5 5 -10 11 -10 6 0 8 -9 4 -20 -5 -15 -3 -18 9 -14
19 7 19 9 6 35 -11 20 -30 26 -30 9z"/>
<path d="M1304 2412 c-14 -12 -19 -24 -14 -37 7 -19 8 -18 15 5 9 30 27 43 37
27 4 -6 10 -8 15 -4 4 5 1 12 -7 17 -20 13 -21 12 -46 -8z"/>
<path d="M1546 2423 c-4 -5 -12 -8 -17 -8 -5 0 -9 -4 -9 -10 0 -13 39 -15 46
-3 8 13 -10 31 -20 21z"/>
<path d="M1251 2379 c-1 -24 5 -42 19 -54 17 -16 20 -16 20 -2 0 9 -5 19 -11
22 -6 4 -8 14 -5 22 3 8 2 11 -3 8 -5 -3 -12 5 -14 17 -3 15 -5 11 -6 -13z"/>
<path d="M1403 2370 c-34 -3 -65 -9 -70 -13 -4 -5 7 -22 26 -38 19 -16 37 -26
40 -23 3 3 -2 12 -13 19 -17 13 -17 15 -2 30 13 14 19 15 31 5 9 -7 15 -8 15
-2 0 9 58 10 85 2 6 -2 17 0 26 4 29 13 101 2 113 -17 16 -27 -15 -48 -55 -37
-16 5 -29 5 -29 0 0 -5 -36 -7 -80 -4 -55 4 -80 2 -80 -5 0 -6 12 -11 28 -10
15 0 44 -2 65 -6 28 -6 37 -4 37 6 0 12 2 12 9 0 12 -19 43 -23 53 -8 6 9 10
9 16 -1 6 -9 18 -2 42 28 18 22 41 40 51 40 26 0 24 17 -3 26 -26 9 -214 11
-305 4z"/>
<path d="M1290 2300 c-16 -10 -23 -50 -9 -50 5 0 9 6 9 14 0 8 7 16 15 20 8 3
15 10 15 16 0 12 -10 13 -30 0z"/>
<path d="M1289 2238 c-13 -46 -1 -69 20 -36 7 11 8 17 2 13 -6 -3 -11 -2 -11
4 0 5 6 12 13 14 7 3 5 6 -5 6 -10 1 -18 0 -19 -1z"/>
<path d="M1710 2222 c0 -10 5 -23 12 -30 9 -9 9 -12 0 -13 -7 -1 -16 -3 -22
-4 -5 -1 -16 -3 -22 -4 -8 -1 -4 -7 6 -13 15 -8 21 -8 24 0 5 16 32 15 32 0 0
-6 3 -9 6 -5 10 9 13 78 4 72 -5 -3 -11 -1 -15 5 -10 16 -25 12 -25 -8z"/>
<path d="M1280 2161 c0 -6 5 -11 11 -11 5 0 7 -5 3 -12 -5 -8 -2 -9 10 -5 10
4 22 7 27 7 14 0 11 17 -3 17 -7 0 -21 4 -30 8 -11 4 -18 3 -18 -4z"/>
</g>
</svg>
